<svg width="34" height="34" viewBox="0 0 34 34" fill="none" xmlns="http://www.w3.org/2000/svg">
<path fill-rule="evenodd" clip-rule="evenodd" d="M7.92464 7.92734C8.118 7.73423 8.38011 7.62575 8.65339 7.62575C8.92667 7.62575 9.18878 7.73423 9.38214 7.92734L16.5596 15.1048L23.7371 7.92734C23.8315 7.82603 23.9454 7.74476 24.0719 7.6884C24.1984 7.63203 24.335 7.60172 24.4734 7.59928C24.6119 7.59684 24.7494 7.62231 24.8778 7.67418C25.0062 7.72604 25.1229 7.80324 25.2208 7.90117C25.3187 7.99909 25.3959 8.11574 25.4478 8.24415C25.4997 8.37256 25.5251 8.5101 25.5227 8.64856C25.5203 8.78703 25.49 8.92359 25.4336 9.05008C25.3772 9.17658 25.296 9.29043 25.1946 9.38485L18.0171 16.5623L25.1946 23.7398C25.296 23.8343 25.3772 23.9481 25.4336 24.0746C25.49 24.2011 25.5203 24.3377 25.5227 24.4761C25.5251 24.6146 25.4997 24.7521 25.4478 24.8805C25.3959 25.0089 25.3187 25.1256 25.2208 25.2235C25.1229 25.3214 25.0062 25.3986 24.8778 25.4505C24.7494 25.5024 24.6119 25.5279 24.4734 25.5254C24.335 25.523 24.1984 25.4927 24.0719 25.4363C23.9454 25.3799 23.8315 25.2987 23.7371 25.1973L16.5596 18.0198L9.38214 25.1973C9.18665 25.3795 8.92808 25.4787 8.66092 25.474C8.39376 25.4692 8.13885 25.361 7.94991 25.1721C7.76097 24.9831 7.65274 24.7282 7.64802 24.4611C7.64331 24.1939 7.74248 23.9353 7.92464 23.7398L15.1021 16.5623L7.92464 9.38485C7.73152 9.19149 7.62305 8.92938 7.62305 8.65609C7.62305 8.38281 7.73152 8.1207 7.92464 7.92734Z" fill="black"/>
</svg>
