<svg width="1000" height="1000" viewBox="0 0 1000 1000" fill="none" xmlns="http://www.w3.org/2000/svg">
<g clip-path="url(#clip0_110_14)">
<path d="M490.25 235V484.34C490.25 494.63 482.81 503.53 472.64 505.06C455.61 507.62 439.39 512.68 424.38 519.85C410.69 526.39 394.87 516.27 394.87 501.1V380.4C394.87 354.41 404.48 329.34 421.85 310.01L489.22 235H490.25Z" fill="gray"/>
<path d="M605.43 380.4V502.87C605.43 518.27 589.22 528.32 575.46 521.4C560.58 513.92 544.47 508.53 527.51 505.63C517.47 503.91 510.05 495.36 510.05 485.17V235H511.08L578.46 310.01C595.83 329.34 605.44 354.41 605.44 380.4H605.43Z" fill="gray"/>
<path d="M375.07 544.92C375.07 551.24 372.89 557.4 368.74 562.16C342.42 592.36 326.48 631.83 326.48 675.03C326.48 694.54 329.74 713.3 335.73 730.78C341.64 748.01 328.72 765.91 310.5 765.91H286.59C282.77 765.91 279.68 762.47 279.68 758.23V505.03C279.68 487.7 285.85 471.09 296.85 458.83L363.28 384.84C367.64 380 375.07 383.42 375.07 390.27V544.91V544.92Z" fill="gray"/>
<path d="M720.61 505.03V758.23C720.61 762.48 717.51 765.91 713.7 765.91H686.19C667.98 765.91 655.05 748.01 660.96 730.78C666.96 713.3 670.21 694.54 670.21 675.03C670.21 633.58 655.53 595.55 631.09 565.87C627.23 561.19 625.22 555.26 625.22 549.19V390.28C625.22 383.42 632.65 380 637.01 384.85L703.44 458.84C714.44 471.1 720.61 487.71 720.61 505.04V505.03Z" fill="gray"/>
<path d="M248.6 524.74L145.58 696.63C127.3 727.13 149.27 765.91 184.83 765.91H254.08C257.3 765.91 259.91 763.3 259.9 760.07L259.41 527.72C259.4 521.82 251.63 519.68 248.59 524.74H248.6Z" fill="gray"/>
<path d="M751.93 524.74L854.95 696.63C873.23 727.13 851.26 765.91 815.7 765.91H746.44C743.22 765.91 740.61 763.3 740.62 760.07L741.11 527.72C741.12 521.82 748.89 519.68 751.93 524.74Z" fill="gray"/>
<path d="M500.15 765.95C558.306 765.95 605.45 718.806 605.45 660.65C605.45 602.495 558.306 555.35 500.15 555.35C441.994 555.35 394.85 602.495 394.85 660.65C394.85 718.806 441.994 765.95 500.15 765.95Z" fill="gray"/>
</g>
</svg>
