<svg width="48" height="48" viewBox="0 0 48 48" fill="none" xmlns="http://www.w3.org/2000/svg">
<g clip-path="url(#clip0_237_10)">
<path d="M10 44C9.46957 44 8.96086 43.7893 8.58579 43.4142C8.21071 43.0391 8 42.5304 8 42V6C8 5.46957 8.21071 4.96086 8.58579 4.58579C8.96086 4.21071 9.46957 4 10 4H38C38.5304 4 39.0391 4.21071 39.4142 4.58579C39.7893 4.96086 40 5.46957 40 6V42C40 42.5304 39.7893 43.0391 39.4142 43.4142C39.0391 43.7893 38.5304 44 38 44H10ZM30 32L40 24L30 16V22H18V26H30V32Z" fill="white"/>
</g>
<defs>
<clipPath id="clip0_237_10">
<rect width="48" height="48" fill="white"/>
</clipPath>
</defs>
</svg>
