<svg width="49" height="49" viewBox="0 0 49 49" fill="none" xmlns="http://www.w3.org/2000/svg">
<path d="M46.9634 38.3657C46.9634 39.4266 46.542 40.444 45.7918 41.1941C45.0417 41.9443 44.0242 42.3657 42.9634 42.3657H6.96338C5.90251 42.3657 4.8851 41.9443 4.13495 41.1941C3.38481 40.444 2.96338 39.4266 2.96338 38.3657V16.3657C2.96338 15.3049 3.38481 14.2874 4.13495 13.5373C4.8851 12.7871 5.90251 12.3657 6.96338 12.3657H14.9634L18.9634 6.36572H30.9634L34.9634 12.3657H42.9634C44.0242 12.3657 45.0417 12.7871 45.7918 13.5373C46.542 14.2874 46.9634 15.3049 46.9634 16.3657V38.3657Z" stroke="white" stroke-width="2" stroke-linecap="round" stroke-linejoin="round"/>
<path d="M24.9634 34.3657C29.3817 34.3657 32.9634 30.784 32.9634 26.3657C32.9634 21.9474 29.3817 18.3657 24.9634 18.3657C20.5451 18.3657 16.9634 21.9474 16.9634 26.3657C16.9634 30.784 20.5451 34.3657 24.9634 34.3657Z" stroke="white" stroke-width="2" stroke-linecap="round" stroke-linejoin="round"/>
</svg>
