<svg width="40" height="40" viewBox="0 0 40 40" fill="none" xmlns="http://www.w3.org/2000/svg">
<path fill-rule="evenodd" clip-rule="evenodd" d="M8 10C5.79086 10 4 11.7909 4 14V30C4 32.2092 5.79086 34 8 34H32C34.2092 34 36 32.2092 36 30V14C36 11.7909 34.2092 10 32 10H28.8284C28.298 10 27.7892 9.78928 27.4142 9.41422L25.1716 7.17158C24.4214 6.42142 23.404 6 22.3432 6H17.6569C16.596 6 15.5786 6.42142 14.8284 7.17158L12.5858 9.41422C12.2107 9.78928 11.702 10 11.1716 10H8ZM20 28C23.3138 28 26 25.3138 26 22C26 18.6863 23.3138 16 20 16C16.6863 16 14 18.6863 14 22C14 25.3138 16.6863 28 20 28Z" fill="white"/>
</svg>
