<svg width="49" height="49" viewBox="0 0 49 49" fill="none" xmlns="http://www.w3.org/2000/svg">
<g clip-path="url(#clip0_476_565)">
<path d="M24.8867 24.7889L6.98272 17.6369L8.08672 43.9889H3.28672L4.43872 16.6049L0.886719 15.1889L24.8867 5.58887L48.8867 15.1889L24.8867 24.7889ZM24.8867 12.7889C23.5667 12.7889 22.4867 13.3169 22.4867 13.9889C22.4867 14.6609 23.5667 15.1889 24.8867 15.1889C26.2067 15.1889 27.2867 14.6609 27.2867 13.9889C27.2867 13.3169 26.2067 12.7889 24.8867 12.7889ZM24.8867 27.1889L38.2547 21.8369C39.9587 24.0929 41.1347 26.8049 41.5187 29.7569C40.7987 29.6609 40.0547 29.5889 39.2867 29.5889C33.1667 29.5889 27.8147 32.8769 24.8867 37.7729C21.9587 32.8769 16.6067 29.5889 10.4867 29.5889C9.71872 29.5889 8.97472 29.6609 8.25472 29.7569C8.63872 26.8049 9.81472 24.0929 11.5187 21.8369L24.8867 27.1889Z" fill="white"/>
</g>
<defs>
<clipPath id="clip0_476_565">
<rect width="48" height="48" fill="white" transform="translate(0.886719 0.789062)"/>
</clipPath>
</defs>
</svg>
